<svg width="26" height="26" viewBox="0 0 26 26" fill="none" xmlns="http://www.w3.org/2000/svg">
<path d="M23.3892 2.1377C20.8179 -0.433596 16.6346 -0.433596 14.0633 2.1377L10.2317 5.96928C9.56307 6.6379 9.02131 7.49095 8.67214 8.53243C8.66628 8.53438 8.66061 8.53736 8.65475 8.53931C7.86059 10.9284 8.4629 13.5263 10.2317 15.2951C10.7602 15.8236 11.382 16.2588 12.0554 16.58L12.3041 16.3313C13.1642 15.4713 13.1642 14.0828 12.3041 13.2227C10.8741 11.7927 10.8741 9.47156 12.3041 8.04165L16.1357 4.21006C17.5656 2.7801 19.8867 2.7801 21.3167 4.21006C22.7467 5.64003 22.7467 7.96113 21.3167 9.39109L18.4074 12.3004C18.7953 13.4999 18.8775 14.7701 18.6897 16.0064C18.9962 15.7928 19.291 15.5617 19.5575 15.2951L23.3891 11.4636C25.9605 8.89225 25.9605 4.70895 23.3892 2.1377Z" fill="#0EE3F7"/>
<path d="M15.4114 10.1135C14.8829 9.58498 14.2612 9.14976 13.5774 8.83887L13.339 9.07725C12.479 9.93728 12.4789 11.3258 13.339 12.1859C14.7689 13.6159 14.7689 15.937 13.339 17.3669C12.1286 18.5773 10.6519 20.0543 9.49788 21.2083C8.06791 22.6383 5.74682 22.6383 4.31685 21.2083C2.88689 19.7783 2.88689 17.4572 4.31685 16.0273L7.23572 13.1082C6.84777 11.9087 6.76564 10.6384 6.95339 9.40211C6.64693 9.61579 6.3521 9.8469 6.0855 10.1135L2.24439 13.9548C-0.326907 16.5261 -0.326907 20.7094 2.24439 23.2807C4.81569 25.8521 8.99894 25.852 11.5703 23.2807L15.4114 19.4394C16.08 18.7707 16.6218 17.9177 16.971 16.8762C16.9768 16.8743 16.9825 16.8713 16.9883 16.8693C17.7825 14.4802 17.1802 11.8822 15.4114 10.1135Z" fill="#0EE3F7"/>
<path d="M21.629 20.4766L20.5928 19.4404C20.3064 19.154 19.8429 19.154 19.5566 19.4404C19.2702 19.7268 19.2702 20.1902 19.5566 20.4766L20.5928 21.5128C20.8792 21.7992 21.3427 21.7992 21.629 21.5128C21.9153 21.2264 21.9153 20.763 21.629 20.4766Z" fill="#0EE3F7"/>
<path d="M6.08608 4.93263L5.04982 3.89643C4.76344 3.61004 4.29995 3.61004 4.01362 3.89643C3.72723 4.18281 3.72723 4.6463 4.01362 4.93263L5.04982 5.96884C5.3362 6.25522 5.79969 6.25522 6.08608 5.96884C6.37246 5.68246 6.37246 5.21897 6.08608 4.93263Z" fill="#0EE3F7"/>
<path d="M24.3339 15.0306L22.9182 14.6511C22.5271 14.5464 22.1254 14.7781 22.0206 15.1693C21.9158 15.5628 22.1503 15.9629 22.5387 16.0669L23.9544 16.4463C24.3456 16.5511 24.7473 16.3193 24.852 15.9282C24.9557 15.5371 24.725 15.1334 24.3339 15.0306Z" fill="#0EE3F7"/>
<path d="M3.10198 9.34094L1.68628 8.96144C1.29516 8.8567 0.893437 9.08845 0.788699 9.47957C0.683862 9.87299 0.918291 10.2731 1.30683 10.3771L2.72253 10.7567C3.11365 10.8614 3.51537 10.6296 3.62011 10.2385C3.72431 9.84691 3.49159 9.4431 3.10198 9.34094Z" fill="#0EE3F7"/>
<path d="M16.565 23.8385L16.1855 22.4228C16.0803 22.0302 15.679 21.7999 15.2879 21.9047C14.8968 22.0094 14.6651 22.4111 14.7698 22.8022L15.1493 24.2179C15.2533 24.6065 15.6535 24.8409 16.0469 24.7361C16.438 24.6313 16.6697 24.2296 16.565 23.8385Z" fill="#0EE3F7"/>
<path d="M10.8746 2.60621L10.4951 1.1905C10.3908 0.797866 9.98861 0.568662 9.59749 0.672375C9.20637 0.777114 8.97462 1.17883 9.07936 1.56995L9.45886 2.98566C9.49324 3.11418 9.56009 3.22551 9.64808 3.31355C9.82718 3.49265 10.0943 3.57361 10.3564 3.50379C10.7476 3.3991 10.9793 2.99733 10.8746 2.60621Z" fill="#0EE3F7"/>
</svg>
