<svg width="26" height="26" viewBox="0 0 26 26" fill="none" xmlns="http://www.w3.org/2000/svg">
<path d="M15.4814 0.209229H4.42825C2.21121 0.209229 0.410645 2.0098 0.410645 4.22671V19.0581C0.410645 21.2646 2.21121 23.0756 4.42825 23.0756H13.5767C13.1605 22.1701 12.9315 21.1606 12.9315 20.0989C12.9315 16.3417 15.825 13.2608 19.499 12.9486V4.22671C19.499 2.0098 17.6985 0.209229 15.4814 0.209229ZM9.49683 17.8612H5.66675C5.08384 17.8612 4.62594 17.4032 4.62594 16.8204C4.62594 16.248 5.08384 15.7796 5.66675 15.7796H9.49683C10.0693 15.7796 10.5376 16.248 10.5376 16.8204C10.5376 17.4032 10.0693 17.8612 9.49683 17.8612ZM14.0036 11.887C13.8265 12.064 13.5975 12.1576 13.3582 12.1576H6.65546C6.41609 12.1576 6.18715 12.064 6.01004 11.887C5.8436 11.71 5.74984 11.4707 5.76025 11.2313C5.81235 9.71176 6.6242 8.41075 7.84186 7.70295C7.56108 7.29702 7.4048 6.79746 7.4048 6.26664C7.4048 4.84075 8.57062 3.66464 10.0068 3.66464C11.4432 3.66464 12.5984 4.84075 12.5984 6.26664C12.5984 6.79746 12.4424 7.29702 12.1613 7.70295C13.379 8.41075 14.2013 9.71176 14.2534 11.2313C14.2638 11.4707 14.17 11.71 14.0036 11.887Z" fill="#F4AE22"/>
<path d="M25.223 20.099C25.223 17.2889 22.9331 14.999 20.1229 14.999C17.3061 14.999 15.0127 17.2794 15.0127 20.099C15.0127 22.8615 17.264 25.2092 20.1229 25.2092C22.9331 25.2092 25.223 22.9195 25.223 20.099ZM18.8844 21.7851C18.7803 21.681 17.8955 20.7963 17.9997 20.9004C17.5939 20.4945 17.5939 19.8388 17.9997 19.4329C18.4057 19.0269 19.0717 19.0269 19.4778 19.4329L19.613 19.5786L20.7684 18.4233C21.1742 18.0174 21.83 18.0174 22.2358 18.4233C22.6419 18.8292 22.6419 19.4848 22.2358 19.8909L20.3519 21.7851C19.9155 22.1999 19.2738 22.1747 18.8844 21.7851Z" fill="#F4AE22"/>
</svg>
