<svg width="26" height="26" viewBox="0 0 26 26" fill="none" xmlns="http://www.w3.org/2000/svg">
<path d="M20.25 15.0468C21.5391 10.9477 19.2531 6.56421 15.154 5.27511C11.055 3.98602 6.67145 6.27207 5.38236 10.3711C4.09326 14.4701 6.37932 18.8537 10.4783 20.1428C14.5773 21.4319 18.9609 19.1459 20.25 15.0468ZM14.6806 10.2848C15.1168 10.0574 15.6154 10.0135 16.0846 10.1611C16.5536 10.3086 16.9373 10.6299 17.1649 11.066L17.1648 11.066C17.3713 11.4612 17.1752 11.8873 16.8538 12.055C16.4922 12.2436 16.0452 12.1 15.8611 11.7341C15.8143 11.6508 15.7362 11.5871 15.6451 11.5584C15.5535 11.5296 15.4525 11.5373 15.3665 11.5793C15.0068 11.7732 14.5584 11.6354 14.3695 11.2733C14.1824 10.9145 14.3215 10.4721 14.6806 10.2848ZM10.1905 8.87265C10.6267 8.64533 11.1252 8.60139 11.5945 8.74895C12.0635 8.89646 12.4471 9.21784 12.6747 9.65385L12.6746 9.6539C12.8811 10.0491 12.6851 10.4752 12.3637 10.6429C12.002 10.8315 11.5551 10.6879 11.3709 10.322C11.3242 10.2387 11.2461 10.175 11.1549 10.1463C11.0634 10.1175 10.9624 10.1252 10.8763 10.1672C10.5166 10.3611 10.0683 10.2233 9.87939 9.86119C9.69227 9.50238 9.83141 9.05997 10.1905 8.87265ZM16.6612 15.2835C15.1262 16.0838 13.4087 16.1853 11.8746 15.7028C10.3406 15.2204 8.99032 14.1542 8.18974 12.6193C8.00268 12.2607 8.14176 11.8183 8.50034 11.6312C8.85893 11.4442 9.30136 11.5833 9.48839 11.9419C10.7162 14.2955 13.63 15.212 15.9839 13.9847C16.3424 13.7977 16.7848 13.9368 16.9719 14.2954C17.1589 14.6541 17.0198 15.0964 16.6612 15.2835Z" fill="#74D633"/>
<path d="M17.9811 4.73477L19.8546 5.67129L20.7915 7.54506C20.9155 7.79317 21.1692 7.94993 21.4466 7.94993C21.724 7.94993 21.9777 7.79317 22.1017 7.54506L23.0386 5.67129L24.9121 4.73477C25.1602 4.61071 25.317 4.35714 25.317 4.07971C25.317 3.80227 25.1603 3.54864 24.9122 3.42458L23.0386 2.48767L22.1017 0.614163C21.9775 0.365988 21.724 0.209229 21.4465 0.209229C21.1691 0.209229 20.9155 0.365988 20.7915 0.614098L19.8545 2.4876L17.981 3.42452C17.7329 3.54857 17.5762 3.80221 17.5762 4.07964C17.5762 4.35708 17.7329 4.61065 17.9811 4.73477Z" fill="#74D633"/>
<path d="M24.9121 20.6838L23.0385 19.7469L22.1016 17.8734C21.9775 17.6253 21.724 17.4685 21.4465 17.4685C21.1691 17.4685 20.9155 17.6253 20.7915 17.8734L19.8545 19.7469L17.981 20.6838C17.7329 20.8078 17.5762 21.0615 17.5762 21.3389C17.5762 21.6164 17.7329 21.8699 17.9811 21.994L19.8546 22.9305L20.7915 24.8043C20.9155 25.0524 21.1692 25.2091 21.4466 25.2091C21.724 25.2091 21.9777 25.0524 22.1017 24.8043L23.0386 22.9305L24.9121 21.994C25.1602 21.8699 25.317 21.6164 25.317 21.3389C25.317 21.0615 25.1602 20.8078 24.9121 20.6838Z" fill="#74D633"/>
<path d="M0.721829 4.73477L2.59533 5.67129L3.53218 7.54506C3.65624 7.79317 3.90988 7.94993 4.18731 7.94993C4.46474 7.94993 4.71838 7.79317 4.84243 7.54506L5.77928 5.67129L7.65279 4.73477C7.9009 4.61071 8.05772 4.35714 8.05772 4.07971C8.05772 3.80227 7.90103 3.54864 7.65292 3.42458L5.77928 2.48767L4.8423 0.614098C4.71825 0.365988 4.46468 0.209229 4.18724 0.209229C3.90981 0.209229 3.65624 0.365988 3.53218 0.614098L2.59527 2.4876L0.721699 3.42458C0.473589 3.54864 0.316895 3.80221 0.316895 4.07964C0.316895 4.35708 0.473654 4.61065 0.721829 4.73477Z" fill="#74D633"/>
<path d="M7.65279 20.6838L5.77922 19.7469L4.8423 17.8734C4.71825 17.6253 4.46468 17.4685 4.18724 17.4685C3.90981 17.4685 3.65624 17.6253 3.53218 17.8734L2.59527 19.7469L0.721699 20.6838C0.473589 20.8078 0.316895 21.0616 0.316895 21.3389C0.316895 21.6163 0.473654 21.8699 0.721829 21.994L2.59533 22.9305L3.53218 24.8043C3.65624 25.0524 3.90988 25.2092 4.18731 25.2092C4.46474 25.2092 4.71838 25.0524 4.84243 24.8043L5.77928 22.9306L7.65279 21.994C7.9009 21.87 8.05772 21.6164 8.05772 21.339C8.05766 21.0616 7.9009 20.8078 7.65279 20.6838Z" fill="#74D633"/>
</svg>
