<svg width="25" height="25" viewBox="0 0 25 25" fill="none" xmlns="http://www.w3.org/2000/svg">
<path fill-rule="evenodd" clip-rule="evenodd" d="M12.622 19.3107C12.6219 20.0379 12.227 20.7078 11.5909 21.0602C10.9547 21.4126 10.1774 21.392 9.56077 21.0064L5.55911 18.5054C4.97386 18.14 4.61839 17.4986 4.61871 16.8087V5.31029C4.61881 4.58298 5.01354 3.91299 5.64968 3.56041C6.28582 3.20783 7.06318 3.22819 7.67999 3.61358L11.6817 6.11462C12.2669 6.48003 12.6224 7.12138 12.622 7.81133V19.3107Z" stroke="#ABABB4" stroke-width="1.25" stroke-linecap="round" stroke-linejoin="round"/>
<path d="M20.6254 9.85205L17.7101 12.7673" stroke="#95959E" stroke-width="1.25" stroke-linecap="round" stroke-linejoin="round"/>
<path d="M20.6254 12.7673L17.7101 9.85205" stroke="#95959E" stroke-width="1.25" stroke-linecap="round" stroke-linejoin="round"/>
<path d="M19.625 6.30765V5.30723C19.6251 4.77653 19.4144 4.26753 19.0391 3.89227C18.6639 3.51701 18.1548 3.30625 17.6242 3.3064H6.61957" stroke="#95959E" stroke-width="1.25" stroke-linecap="round" stroke-linejoin="round"/>
<path d="M12.6221 19.313H17.6242C18.1549 19.3132 18.6639 19.1024 19.0391 18.7271C19.4144 18.3519 19.6251 17.8429 19.625 17.3122V16.3118" stroke="#95959E" stroke-width="1.25" stroke-linecap="round" stroke-linejoin="round"/>
</svg>
