<svg width="19" height="26" viewBox="0 0 19 26" fill="none" xmlns="http://www.w3.org/2000/svg">
<path d="M16.2212 0.209229H3.41289C2.6805 0.210111 1.97836 0.501442 1.46048 1.01932C0.942604 1.5372 0.651273 2.23934 0.650391 2.97173V22.4467C0.651273 23.1791 0.942604 23.8813 1.46048 24.3991C1.97836 24.917 2.6805 25.2083 3.41289 25.2092H16.2212C16.9536 25.2083 17.6558 24.917 18.1736 24.3991C18.6915 23.8813 18.9828 23.1791 18.9837 22.4467V2.97173C18.9828 2.23934 18.6915 1.5372 18.1736 1.01932C17.6558 0.501442 16.9536 0.210111 16.2212 0.209229ZM8.15039 2.70923H11.4837C11.7047 2.70923 11.9167 2.79703 12.073 2.95331C12.2293 3.10959 12.3171 3.32155 12.3171 3.54256C12.3171 3.76358 12.2293 3.97554 12.073 4.13182C11.9167 4.2881 11.7047 4.3759 11.4837 4.3759H8.15039C7.92938 4.3759 7.71742 4.2881 7.56114 4.13182C7.40486 3.97554 7.31706 3.76358 7.31706 3.54256C7.31706 3.32155 7.40486 3.10959 7.56114 2.95331C7.71742 2.79703 7.92938 2.70923 8.15039 2.70923ZM14.1562 11.6317L9.15622 16.6317C8.99995 16.788 8.78803 16.8757 8.56706 16.8757C8.34609 16.8757 8.13416 16.788 7.97789 16.6317L5.47789 14.1317C5.32609 13.9746 5.2421 13.7641 5.244 13.5456C5.24589 13.3271 5.33354 13.1181 5.48804 12.9635C5.64255 12.809 5.85156 12.7214 6.07006 12.7195C6.28855 12.7176 6.49906 12.8016 6.65622 12.9534L8.56706 14.8642L12.9779 10.4534C13.1351 10.3016 13.3456 10.2176 13.5641 10.2195C13.7826 10.2214 13.9916 10.309 14.1461 10.4635C14.3006 10.6181 14.3882 10.8271 14.3901 11.0456C14.392 11.2641 14.308 11.4746 14.1562 11.6317Z" fill="#D83122"/>
</svg>
