<svg width="25" height="25" viewBox="0 0 25 25" fill="none" xmlns="http://www.w3.org/2000/svg">
<path d="M14.7434 10.1887C15.915 11.3603 15.915 13.2598 14.7434 14.4314C13.5718 15.6029 11.6723 15.6029 10.5007 14.4314C9.32918 13.2598 9.32918 11.3603 10.5007 10.1887C11.6723 9.01717 13.5718 9.01717 14.7434 10.1887" stroke="#ABABB4" stroke-width="1.25" stroke-linecap="round" stroke-linejoin="round"/>
<path fill-rule="evenodd" clip-rule="evenodd" d="M16.8021 19.0351V19.0351C17.3051 19.5381 18.1221 19.5381 18.6251 19.0351L19.3471 18.3131C19.8501 17.8101 19.8501 16.9931 19.3471 16.4901V16.4901C18.9651 16.1081 18.8531 15.5351 19.0631 15.0371C19.0851 14.9841 19.1071 14.9311 19.1281 14.8771C19.3111 14.4111 19.7651 14.1111 20.2651 14.1111H20.3321C21.0441 14.1111 21.6211 13.5341 21.6211 12.8221V11.8011C21.6211 11.0891 21.0441 10.5121 20.3321 10.5121H20.2651C19.7651 10.5121 19.3111 10.2111 19.1281 9.74606C19.1071 9.69206 19.0851 9.63906 19.0631 9.58606C18.8531 9.08806 18.9651 8.51506 19.3471 8.13306V8.13306C19.8501 7.63006 19.8501 6.81306 19.3471 6.31006L18.6251 5.58806C18.1221 5.08506 17.3051 5.08506 16.8021 5.58806V5.58806C16.4201 5.97006 15.8471 6.08206 15.3491 5.87206C15.2961 5.85006 15.2431 5.82806 15.1891 5.80706C14.7231 5.62106 14.4221 5.16606 14.4221 4.66606V4.59906C14.4221 3.88706 13.8451 3.31006 13.1331 3.31006H12.1121C11.3991 3.31006 10.8221 3.88706 10.8221 4.59906V4.66606C10.8221 5.16606 10.5211 5.62006 10.0561 5.80306C10.0021 5.82506 9.94907 5.84606 9.89607 5.86906C9.39807 6.07906 8.82507 5.96706 8.44307 5.58506V5.58506C7.94007 5.08206 7.12307 5.08206 6.62007 5.58506L5.89707 6.30706C5.39407 6.81006 5.39407 7.62706 5.89707 8.13006V8.13006C6.27907 8.51206 6.39107 9.08506 6.18107 9.58306C6.15807 9.63706 6.13707 9.69006 6.11607 9.74406C5.93307 10.2091 5.47807 10.5101 4.97807 10.5101H4.91107C4.19907 10.5101 3.62207 11.0871 3.62207 11.7991V12.8201C3.62207 13.5331 4.19907 14.1101 4.91107 14.1101H4.97807C5.47807 14.1101 5.93207 14.4111 6.11507 14.8761C6.13607 14.9301 6.15807 14.9831 6.18007 15.0361C6.39007 15.5341 6.27807 16.1071 5.89607 16.4891V16.4891C5.39307 16.9921 5.39307 17.8091 5.89607 18.3121L6.61807 19.0341C7.12107 19.5371 7.93807 19.5371 8.44107 19.0341V19.0341C8.82307 18.6521 9.39607 18.5401 9.89407 18.7501C9.94707 18.7721 10.0001 18.7941 10.0541 18.8151C10.5201 18.9981 10.8201 19.4521 10.8201 19.9521V20.0191C10.8201 20.7311 11.3971 21.3081 12.1091 21.3081H13.1301C13.8421 21.3081 14.4191 20.7311 14.4191 20.0191V19.9521C14.4191 19.4521 14.7201 18.9981 15.1851 18.8151C15.2391 18.7941 15.2921 18.7721 15.3451 18.7501C15.8461 18.5411 16.4191 18.6531 16.8021 19.0351V19.0351Z" stroke="#ABABB4" stroke-width="1.25" stroke-linecap="round" stroke-linejoin="round"/>
</svg>
