<svg width="25" height="25" viewBox="0 0 25 25" fill="none" xmlns="http://www.w3.org/2000/svg">
<path fill-rule="evenodd" clip-rule="evenodd" d="M6.62207 18.8942C8.19107 17.3692 10.3141 16.4312 12.6451 16.4312C14.9531 16.4312 17.0531 17.3502 18.6221 18.8472C17.0531 20.3722 14.9301 21.3102 12.5991 21.3102C10.2911 21.3102 8.19107 20.3912 6.62207 18.8942Z" stroke="#95959E" stroke-width="1.25" stroke-linecap="round" stroke-linejoin="round"/>
<path d="M4.59707 16.3351C3.98707 15.1211 3.62207 13.7621 3.62207 12.3101C3.62207 7.33606 7.64807 3.31006 12.6221 3.31006C17.5961 3.31006 21.6221 7.33606 21.6221 12.3101C21.6221 13.7601 21.2591 15.1201 20.6451 16.3331" stroke="#95959E" stroke-width="1.25" stroke-linecap="round" stroke-linejoin="round"/>
<path d="M14.7434 8.18874C15.915 9.36031 15.915 11.2598 14.7434 12.4314C13.5718 13.6029 11.6723 13.6029 10.5007 12.4314C9.32918 11.2598 9.32918 9.36031 10.5007 8.18874C11.6723 7.01717 13.5718 7.01717 14.7434 8.18874" stroke="#95959E" stroke-width="1.25" stroke-linecap="round" stroke-linejoin="round"/>
</svg>
