<svg width="17" height="21" viewBox="0 0 17 21" fill="none" xmlns="http://www.w3.org/2000/svg">
<g clip-path="url(#clip0_3803_7577)">
<path d="M13.1012 18.1175L1.48612 3.18417C1.4249 3.10534 1.38703 3.01091 1.37682 2.91161C1.36661 2.81232 1.38447 2.71216 1.42837 2.62252C1.47226 2.53287 1.54043 2.45735 1.62513 2.40453C1.70982 2.35171 1.80764 2.32371 1.90745 2.32373H4.1119C4.19305 2.32385 4.2731 2.34249 4.34596 2.37823C4.41882 2.41396 4.48257 2.46586 4.53234 2.52995L16.1475 17.4633C16.2087 17.5421 16.2465 17.6366 16.2567 17.7358C16.267 17.8351 16.2491 17.9353 16.2052 18.0249C16.1613 18.1146 16.0931 18.1901 16.0084 18.2429C15.9237 18.2958 15.8259 18.3237 15.7261 18.3237H13.5217C13.4405 18.3236 13.3605 18.305 13.2876 18.2692C13.2147 18.2335 13.151 18.1816 13.1012 18.1175Z" stroke="#85CBFF"/>
<path d="M15.9278 2.32373L1.70557 18.3237" stroke="#85CBFF" stroke-linecap="round"/>
</g>
<defs>
<clipPath id="clip0_3803_7577">
<rect width="16" height="20" fill="white" transform="translate(0.816895 0.32373)"/>
</clipPath>
</defs>
</svg>
